<svg xmlns="http://www.w3.org/2000/svg" viewBox="0 0 1000 700" fill="none">
  <!-- Background clouds -->
  <ellipse cx="350" cy="200" rx="180" ry="160" fill="#B8D4FF" opacity="0.3"/>
  <ellipse cx="650" cy="400" rx="200" ry="180" fill="#A0C4FF" opacity="0.3"/>
  <ellipse cx="200" cy="500" rx="150" ry="140" fill="#C7DCFF" opacity="0.3"/>
  
  <!-- Main cloud -->
  <path d="M300,250 Q250,200 300,180 Q320,150 370,160 Q400,140 440,165 Q480,150 510,180 Q550,170 560,210 Q580,220 570,260 Q550,290 500,285 Q480,300 440,290 Q400,305 360,285 Q320,295 300,250Z" fill="#5B8EFF" opacity="0.8"/>
  
  <!-- Document cards -->
  <rect x="180" y="350" width="140" height="180" rx="10" fill="white" opacity="0.9"/>
  <line x1="200" y1="380" x2="300" y2="380" stroke="#4F46E5" stroke-width="3"/>
  <line x1="200" y1="410" x2="280" y2="410" stroke="#A5B4FC" stroke-width="2"/>
  <line x1="200" y1="440" x2="290" y2="440" stroke="#A5B4FC" stroke-width="2"/>
  <line x1="200" y1="470" x2="260" y2="470" stroke="#A5B4FC" stroke-width="2"/>
  
  <!-- Person sitting -->
  <ellipse cx="500" cy="280" rx="40" ry="45" fill="#FFB885"/>
  <path d="M480,270 Q475,250 490,245 Q505,240 515,250 Q520,270 510,280 Q490,275 480,270Z" fill="#1E3A8A"/>
  <rect x="460" y="320" width="80" height="100" rx="40" fill="#4F46E5"/>
  <rect x="445" y="410" width="50" height="80" rx="5" fill="#1E3A8A"/>
  <rect x="505" y="410" width="50" height="80" rx="5" fill="#1E3A8A"/>
  <rect x="440" y="480" width="30" height="15" rx="5" fill="#34D399"/>
  <rect x="530" y="480" width="30" height="15" rx="5" fill="#34D399"/>
  
  <!-- Laptop -->
  <rect x="460" y="360" width="80" height="50" rx="3" fill="#E0E7FF"/>
  <circle cx="500" cy="385" r="2" fill="#4F46E5"/>
  <path d="M440,410 L560,410 L570,420 L430,420 Z" fill="#CBD5E1"/>
  
  <!-- Bench -->
  <rect x="350" y="485" width="300" height="15" rx="5" fill="#818CF8"/>
  <rect x="365" y="500" width="15" height="80" rx="5" fill="#4F46E5"/>
  <rect x="620" y="500" width="15" height="80" rx="5" fill="#4F46E5"/>
  
  <!-- Dashboard card -->
  <rect x="580" y="200" width="180" height="130" rx="12" fill="white" opacity="0.95"/>
  <rect x="600" y="220" width="70" height="70" rx="35" fill="#E0E7FF"/>
  <path d="M635,235 L635,270 L655,252 Z" fill="#4F46E5"/>
  <rect x="685" y="230" width="60" height="8" rx="4" fill="#C7D2FE"/>
  <rect x="685" y="250" width="50" height="8" rx="4" fill="#E0E7FF"/>
  <rect x="685" y="270" width="55" height="8" rx="4" fill="#C7D2FE"/>
  <rect x="600" y="305" width="40" height="6" rx="3" fill="#4F46E5"/>
  <rect x="650" y="305" width="40" height="6" rx="3" fill="#818CF8"/>
  <rect x="700" y="305" width="40" height="6" rx="3" fill="#C7D2FE"/>
  
  <!-- Small floating elements -->
  <circle cx="750" cy="150" r="25" fill="#93C5FD" opacity="0.4"/>
  <circle cx="150" cy="180" r="30" fill="#BFDBFE" opacity="0.4"/>
  <rect x="720" cy="350" width="60" height="50" rx="8" fill="white" opacity="0.8"/>
  <circle cx="750" cy="380" r="15" fill="#34D399"/>
  
  <!-- Plant -->
  <rect x="680" y="470" width="40" height="15" rx="5" fill="#F87171"/>
  <ellipse cx="700" cy="460" rx="15" ry="20" fill="#34D399"/>
  <ellipse cx="690" cy="450" rx="12" ry="18" fill="#10B981"/>
  <ellipse cx="710" cy="455" rx="12" ry="18" fill="#10B981"/>
  
  <!-- Chart elements -->
  <rect x="220" y="180" width="15" height="40" rx="3" fill="#4F46E5"/>
  <rect x="245" y="160" width="15" height="60" rx="3" fill="#6366F1"/>
  <rect x="270" y="190" width="15" height="30" rx="3" fill="#818CF8"/>
  
  <!-- Connection lines -->
  <line x1="400" y1="300" x2="460" y2="350" stroke="#C7D2FE" stroke-width="2" stroke-dasharray="5,5" opacity="0.5"/>
  <line x1="560" y1="350" x2="600" y2="280" stroke="#C7D2FE" stroke-width="2" stroke-dasharray="5,5" opacity="0.5"/>
</svg>